<svg width="24" height="25" viewBox="0 0 24 25" fill="none" xmlns="http://www.w3.org/2000/svg">
<path fill-rule="evenodd" clip-rule="evenodd" d="M9.77974 2.5C9.67957 2.49998 9.59241 2.49996 9.50924 2.50499C8.45757 2.56869 7.53665 3.23245 7.14366 4.21001C7.11258 4.28732 7.08504 4.37001 7.05339 4.46506L7.04666 4.48525C7.00448 4.61177 6.99534 4.63794 6.98756 4.65728C6.85657 4.98313 6.54959 5.20438 6.19904 5.22561C6.17849 5.22686 6.14764 5.22728 6.00508 5.22728L5.95431 5.22727C5.66807 5.22721 5.45776 5.22717 5.27784 5.24499C3.55306 5.41588 2.18862 6.78033 2.01773 8.5051C1.99991 8.68498 1.99995 8.88684 2.00001 9.15941L2.00001 16.3557C2 17.0875 1.99999 17.6915 2.04019 18.1835C2.08194 18.6945 2.17154 19.1642 2.39635 19.6054C2.74498 20.2896 3.30127 20.8459 3.9855 21.1946C4.42671 21.4194 4.89644 21.509 5.40744 21.5507C5.89943 21.5909 6.50339 21.5909 7.23517 21.5909H16.7648C17.4966 21.5909 18.1006 21.5909 18.5926 21.5507C19.1036 21.509 19.5733 21.4194 20.0145 21.1946C20.6987 20.8459 21.255 20.2896 21.6036 19.6054C21.8285 19.1642 21.9181 18.6945 21.9598 18.1835C22 17.6915 22 17.0875 22 16.3557L22 9.1594C22 8.88685 22.0001 8.68497 21.9823 8.5051C21.8114 6.78033 20.4469 5.41588 18.7222 5.24499C18.5422 5.22717 18.3319 5.22721 18.0457 5.22727L17.9949 5.22728C17.8524 5.22728 17.8215 5.22686 17.801 5.22561C17.4504 5.20438 17.1434 4.98313 17.0124 4.65728C17.0047 4.63794 16.9955 4.61177 16.9533 4.48525L16.9466 4.46505C16.915 4.37003 16.8874 4.2873 16.8563 4.21001C16.4633 3.23245 15.5424 2.56869 14.4908 2.50499C14.4076 2.49996 14.3204 2.49998 14.2203 2.5H9.77974ZM15.6363 12.9545C15.6363 14.9628 14.0083 16.5909 12 16.5909C9.99168 16.5909 8.36363 14.9628 8.36363 12.9545C8.36363 10.9462 9.99168 9.31817 12 9.31817C14.0083 9.31817 15.6363 10.9462 15.6363 12.9545Z" fill="#CCCCCC"/>
</svg>
